
<svg xmlns="http://www.w3.org/2000/svg" viewBox="370 240 300 300">
  <path d="m510.875 246.5 2.509.017c12.527.098 24.584.695 36.616 4.483l2.093.65c37.97 12.206 66.852 38.238 85.117 73.281C646.5 343.595 650 363.288 650 384h-69l-2-14c-4.973-19.005-14.865-34.366-31.813-44.688-16.455-9.208-33.666-10.867-52.187-8.312 5.751 6.925 12.102 13.22 18.481 19.557a3867.72 3867.72 0 0 1 5.761 5.736c4.062 4.051 8.129 8.098 12.196 12.144 4.738 4.716 9.475 9.432 14.208 14.153 1.895 1.888 3.793 3.774 5.69 5.659l3.45 3.44 1.611 1.595c1.22 1.22 2.415 2.465 3.603 3.716v1h-47c5.489 6.318 5.489 6.318 11.22 12.34l2.299 2.303 2.446 2.435 2.633 2.634c2.36 2.359 4.72 4.715 7.083 7.07 2.478 2.472 4.953 4.946 7.428 7.42 4.676 4.673 9.354 9.344 14.034 14.013 5.332 5.321 10.662 10.645 15.99 15.969A85355.386 85355.386 0 0 0 609 481c-7.76 16.384-34.488 28.056-50.754 33.945-15.214 4.944-29.726 7.477-45.746 7.43l-2.126-.002c-11.84-.042-22.962-1.105-34.374-4.373l-2.3-.633c-34.2-9.635-64.011-33.517-81.563-64.297C380.125 431.301 374 408.99 374 384h69l4 21c6.416 18.38 17.5 32.101 35 41 10.122 4.356 18.963 6.181 29.938 6.188l3.287.037 3.177.005 2.89.013c2.902-.26 5.071-1.034 7.708-2.243l-2.45-2.45L517 438l-2.307-2.306c-2.486-2.487-4.97-4.977-7.452-7.468-4.511-4.528-9.025-9.054-13.541-13.578-2.725-2.73-5.449-5.46-8.17-8.194a7220.151 7220.151 0 0 0-7.935-7.953 2430.707 2430.707 0 0 1-3.017-3.03c-1.4-1.406-2.804-2.81-4.208-4.214l-2.417-2.424c-1.825-1.888-1.825-1.888-3.953-2.833v-2l46-1-95-95c9.234-18.468 38.172-30.077 56.814-36.308 12.945-4.1 25.543-5.37 39.061-5.192z" fill="#212121"/>
  <path d="M374 384h69v9h-1v-7h-66v11c-2-3-2-3-2-13z" fill="#313131"/>
</svg>  
